<svg width="417" height="85" viewBox="-20 0 417 85" fill="none" xmlns="http://www.w3.org/2000/svg">
<g filter="url(#filter0_d_120_71)">
<rect x="20" y="15.5" width="48" height="44" rx="4" fill="#2F3349" shape-rendering="crispEdges"/>
<path d="M44 32.8333V42.1667" stroke="white" stroke-width="1.75" stroke-linecap="round" stroke-linejoin="round"/>
<path d="M39.3334 37.5H48.6667" stroke="white" stroke-width="1.75" stroke-linecap="round" stroke-linejoin="round"/>
</g>
<g filter="url(#filter1_d_120_71)">
<rect x="84" y="15.5" width="48" height="44" rx="4" fill="#2F3349" shape-rendering="crispEdges"/>
<path d="M101.792 38.5C101.792 38.9832 102.183 39.375 102.667 39.375C103.15 39.375 103.542 38.9832 103.542 38.5H101.792ZM108 41.9583C107.517 41.9583 107.125 42.3501 107.125 42.8333C107.125 43.3166 107.517 43.7083 108 43.7083V41.9583ZM102.667 35.2917C102.183 35.2917 101.792 35.6834 101.792 36.1667C101.792 36.6499 102.183 37.0417 102.667 37.0417V35.2917ZM113.333 37.0417C113.817 37.0417 114.208 36.6499 114.208 36.1667C114.208 35.6834 113.817 35.2917 113.333 35.2917V37.0417ZM107.542 32.1667C107.542 31.6834 107.15 31.2917 106.667 31.2917C106.183 31.2917 105.792 31.6834 105.792 32.1667H107.542ZM105.792 39.8333C105.792 40.3166 106.183 40.7083 106.667 40.7083C107.15 40.7083 107.542 40.3166 107.542 39.8333H105.792ZM101.333 41.2917C100.85 41.2917 100.458 41.6834 100.458 42.1667C100.458 42.6499 100.85 43.0417 101.333 43.0417V41.2917ZM106 43.0417C106.483 43.0417 106.875 42.6499 106.875 42.1667C106.875 41.6834 106.483 41.2917 106 41.2917V43.0417ZM104.619 39.5479C104.277 39.2062 103.723 39.2062 103.381 39.5479C103.04 39.8897 103.04 40.4437 103.381 40.7854L104.619 39.5479ZM106 42.1667L106.619 42.7854C106.96 42.4437 106.96 41.8897 106.619 41.5479L106 42.1667ZM103.381 43.5479C103.04 43.8897 103.04 44.4437 103.381 44.7854C103.723 45.1271 104.277 45.1271 104.619 44.7854L103.381 43.5479ZM103.542 38.5V33.5H101.792V38.5H103.542ZM103.542 33.5C103.542 33.2469 103.747 33.0417 104 33.0417V31.2917C102.78 31.2917 101.792 32.2804 101.792 33.5H103.542ZM104 33.0417H112V31.2917H104V33.0417ZM112 33.0417C112.253 33.0417 112.458 33.2469 112.458 33.5H114.208C114.208 32.2804 113.22 31.2917 112 31.2917V33.0417ZM112.458 33.5V41.5H114.208V33.5H112.458ZM112.458 41.5C112.458 41.7531 112.253 41.9583 112 41.9583V43.7083C113.22 43.7083 114.208 42.7196 114.208 41.5H112.458ZM112 41.9583H108V43.7083H112V41.9583ZM102.667 37.0417H113.333V35.2917H102.667V37.0417ZM105.792 32.1667V39.8333H107.542V32.1667H105.792ZM101.333 43.0417H106V41.2917H101.333V43.0417ZM103.381 40.7854L105.381 42.7854L106.619 41.5479L104.619 39.5479L103.381 40.7854ZM105.381 41.5479L103.381 43.5479L104.619 44.7854L106.619 42.7854L105.381 41.5479Z" fill="white"/>
</g>
<g filter="url(#filter2_d_120_71)">
<rect x="148" y="15.5" width="48" height="44" rx="4" fill="#2F3349" shape-rendering="crispEdges"/>
<path d="M171.667 43.7083C172.15 43.7083 172.542 43.3166 172.542 42.8333C172.542 42.3501 172.15 41.9583 171.667 41.9583V43.7083ZM176.458 38.5C176.458 38.9832 176.85 39.375 177.333 39.375C177.817 39.375 178.208 38.9832 178.208 38.5H176.458ZM166.667 35.2917C166.183 35.2917 165.792 35.6834 165.792 36.1667C165.792 36.6499 166.183 37.0417 166.667 37.0417V35.2917ZM177.333 37.0417C177.817 37.0417 178.208 36.6499 178.208 36.1667C178.208 35.6834 177.817 35.2917 177.333 35.2917V37.0417ZM171.542 32.1667C171.542 31.6834 171.15 31.2917 170.667 31.2917C170.183 31.2917 169.792 31.6834 169.792 32.1667H171.542ZM169.792 42.8333C169.792 43.3166 170.183 43.7083 170.667 43.7083C171.15 43.7083 171.542 43.3166 171.542 42.8333H169.792ZM173.333 41.2917C172.85 41.2917 172.458 41.6834 172.458 42.1667C172.458 42.6499 172.85 43.0417 173.333 43.0417V41.2917ZM178 43.0417C178.483 43.0417 178.875 42.6499 178.875 42.1667C178.875 41.6834 178.483 41.2917 178 41.2917V43.0417ZM176.619 39.5479C176.277 39.2062 175.723 39.2062 175.381 39.5479C175.04 39.8897 175.04 40.4437 175.381 40.7854L176.619 39.5479ZM178 42.1667L178.619 42.7854C178.96 42.4437 178.96 41.8897 178.619 41.5479L178 42.1667ZM175.381 43.5479C175.04 43.8897 175.04 44.4437 175.381 44.7854C175.723 45.1271 176.277 45.1271 176.619 44.7854L175.381 43.5479ZM171.667 41.9583H168V43.7083H171.667V41.9583ZM168 41.9583C167.747 41.9583 167.542 41.7531 167.542 41.5H165.792C165.792 42.7196 166.78 43.7083 168 43.7083V41.9583ZM167.542 41.5V33.5H165.792V41.5H167.542ZM167.542 33.5C167.542 33.2469 167.747 33.0417 168 33.0417V31.2917C166.78 31.2917 165.792 32.2804 165.792 33.5H167.542ZM168 33.0417H176V31.2917H168V33.0417ZM176 33.0417C176.253 33.0417 176.458 33.2469 176.458 33.5H178.208C178.208 32.2804 177.22 31.2917 176 31.2917V33.0417ZM176.458 33.5V38.5H178.208V33.5H176.458ZM166.667 37.0417H177.333V35.2917H166.667V37.0417ZM169.792 32.1667V42.8333H171.542V32.1667H169.792ZM173.333 43.0417H178V41.2917H173.333V43.0417ZM175.381 40.7854L177.381 42.7854L178.619 41.5479L176.619 39.5479L175.381 40.7854ZM177.381 41.5479L175.381 43.5479L176.619 44.7854L178.619 42.7854L177.381 41.5479Z" fill="white"/>
</g>
<g filter="url(#filter3_d_120_71)">
<rect x="212" y="15.5" width="48" height="44" rx="4" fill="#2F3349" shape-rendering="crispEdges"/>
<path d="M230.667 33.1667H241.333" stroke="white" stroke-width="1.75" stroke-linecap="round" stroke-linejoin="round"/>
<path d="M239 32.1667V34.1667" stroke="white" stroke-width="1.75" stroke-linecap="round" stroke-linejoin="round"/>
<path d="M230.667 37.5H241.333" stroke="white" stroke-width="1.75" stroke-linecap="round" stroke-linejoin="round"/>
<path d="M233 36.5V38.5" stroke="white" stroke-width="1.75" stroke-linecap="round" stroke-linejoin="round"/>
<path d="M230.667 41.8333H241.333" stroke="white" stroke-width="1.75" stroke-linecap="round" stroke-linejoin="round"/>
<path d="M239 40.8333V42.8333" stroke="white" stroke-width="1.75" stroke-linecap="round" stroke-linejoin="round"/>
</g>
<g filter="url(#filter4_d_120_71)">
<rect x="276" y="15.5" width="122" height="44" rx="4" fill="#2F3349" shape-rendering="crispEdges"/>
<path d="M294 43.5H296.667L305.333 34.8334C306.07 34.097 306.07 32.9031 305.333 32.1667C304.597 31.4303 303.403 31.4303 302.667 32.1667L294 40.8334V43.5" stroke="white" stroke-width="1.75" stroke-linecap="round" stroke-linejoin="round"/>
<path d="M301.667 33.1667L304.333 35.8333" stroke="white" stroke-width="1.75" stroke-linecap="round" stroke-linejoin="round"/>
<path d="M300 34.8333L296.667 31.5L294 34.1667L297.333 37.5" stroke="white" stroke-width="1.75" stroke-linecap="round" stroke-linejoin="round"/>
<path d="M296.667 34.8333L295.667 35.8333" stroke="white" stroke-width="1.75" stroke-linecap="round" stroke-linejoin="round"/>
<path d="M302.667 37.5L306 40.8333L303.333 43.5L300 40.1667" stroke="white" stroke-width="1.75" stroke-linecap="round" stroke-linejoin="round"/>
<path d="M302.667 40.8333L301.667 41.8333" stroke="white" stroke-width="1.75" stroke-linecap="round" stroke-linejoin="round"/>
<path d="M318.745 32.971C319.421 32.971 320.021 33.1097 320.546 33.387C321.07 33.6643 321.49 34.037 321.807 34.505C322.127 34.973 322.318 35.4908 322.379 36.0585H320.897C320.832 35.7032 320.706 35.3825 320.52 35.0965C320.338 34.8062 320.095 34.5787 319.792 34.414C319.488 34.245 319.129 34.1605 318.713 34.1605C318.18 34.1605 317.727 34.2862 317.354 34.5375C316.981 34.7888 316.698 35.181 316.503 35.714C316.312 36.247 316.217 36.9338 316.217 37.7745C316.217 39.0442 316.431 39.9737 316.86 40.563C317.289 41.148 317.907 41.4405 318.713 41.4405C319.129 41.4405 319.488 41.3517 319.792 41.174C320.095 40.992 320.338 40.7515 320.52 40.4525C320.706 40.1492 320.832 39.8198 320.897 39.4645H322.379C322.327 39.8762 322.218 40.2727 322.054 40.654C321.889 41.031 321.659 41.369 321.365 41.668C321.074 41.967 320.712 42.2032 320.279 42.3765C319.846 42.5455 319.334 42.63 318.745 42.63C317.896 42.63 317.168 42.435 316.561 42.045C315.954 41.6507 315.489 41.0917 315.164 40.368C314.843 39.64 314.683 38.769 314.683 37.755C314.683 36.7453 314.843 35.8852 315.164 35.1745C315.484 34.4595 315.948 33.9135 316.555 33.5365C317.161 33.1595 317.891 32.971 318.745 32.971ZM326.894 42.63C326.556 42.6257 326.233 42.5758 325.926 42.4805C325.618 42.3852 325.343 42.2422 325.1 42.0515C324.862 41.8608 324.671 41.6247 324.528 41.343C324.39 41.0613 324.32 40.7342 324.32 40.3615V35.779H325.718V40.212C325.718 40.615 325.843 40.9422 326.095 41.1935C326.346 41.4448 326.725 41.5705 327.232 41.5705C327.692 41.5705 328.06 41.4513 328.337 41.213C328.615 40.9703 328.753 40.6172 328.753 40.1535V35.779H330.138V42.5H329.059L328.903 41.2C328.825 41.551 328.684 41.8327 328.48 42.045C328.281 42.253 328.043 42.4047 327.765 42.5C327.492 42.591 327.202 42.6343 326.894 42.63ZM334.821 42.63C334.353 42.63 333.913 42.5563 333.501 42.409C333.094 42.2617 332.752 42.0298 332.474 41.7135C332.201 41.3972 332.03 40.992 331.961 40.498H333.202C333.259 40.7537 333.365 40.966 333.521 41.135C333.681 41.2997 333.872 41.4232 334.093 41.5055C334.318 41.5835 334.559 41.6225 334.814 41.6225C335.239 41.6225 335.581 41.5467 335.841 41.395C336.106 41.239 336.238 41.0007 336.238 40.68C336.238 40.4503 336.166 40.2662 336.023 40.1275C335.885 39.9888 335.664 39.887 335.36 39.822L334.021 39.5035C333.467 39.3735 333.022 39.1677 332.689 38.886C332.355 38.6 332.186 38.2013 332.182 37.69C332.182 37.2957 332.279 36.9447 332.474 36.637C332.674 36.3293 332.968 36.0888 333.358 35.9155C333.748 35.7378 334.234 35.649 334.814 35.649C335.573 35.649 336.181 35.818 336.641 36.156C337.1 36.494 337.338 36.9837 337.356 37.625H336.153C336.11 37.3173 335.969 37.0768 335.731 36.9035C335.497 36.7258 335.187 36.637 334.801 36.637C334.403 36.637 334.075 36.7172 333.82 36.8775C333.564 37.0335 333.436 37.274 333.436 37.599C333.436 37.82 333.529 37.9955 333.716 38.1255C333.902 38.2512 334.182 38.3552 334.554 38.4375L335.828 38.756C336.158 38.8427 336.428 38.9575 336.641 39.1005C336.853 39.2392 337.02 39.393 337.141 39.562C337.263 39.731 337.347 39.9065 337.395 40.0885C337.447 40.2705 337.473 40.4417 337.473 40.602C337.473 41.0267 337.364 41.3907 337.148 41.694C336.935 41.993 336.63 42.2248 336.231 42.3895C335.837 42.5498 335.367 42.63 334.821 42.63ZM342.953 36.78H341.445L341.452 40.7905C341.452 41.0115 341.473 41.174 341.517 41.278C341.564 41.3777 341.642 41.4427 341.751 41.473C341.863 41.499 342.015 41.512 342.206 41.512H342.992V42.4155C342.906 42.4502 342.776 42.4805 342.602 42.5065C342.433 42.5325 342.214 42.5455 341.946 42.5455C341.447 42.5455 341.06 42.4783 340.782 42.344C340.509 42.2097 340.319 42.0168 340.21 41.7655C340.106 41.5098 340.054 41.2022 340.054 40.8425V36.78H338.962V35.779H340.093L340.438 33.803H341.445V35.7725H342.953V36.78ZM347.576 42.63C346.948 42.63 346.397 42.4957 345.925 42.227C345.457 41.954 345.093 41.5597 344.833 41.044C344.577 40.5283 344.45 39.9043 344.45 39.172C344.45 38.4657 344.571 37.8482 344.814 37.3195C345.061 36.7908 345.418 36.3813 345.886 36.091C346.354 35.7963 346.92 35.649 347.583 35.649C348.215 35.649 348.763 35.7877 349.227 36.065C349.691 36.338 350.05 36.7388 350.306 37.2675C350.562 37.7918 350.69 38.4267 350.69 39.172C350.69 39.8523 350.568 40.4525 350.326 40.9725C350.087 41.4925 349.736 41.8998 349.273 42.1945C348.813 42.4848 348.248 42.63 347.576 42.63ZM347.583 41.5575C347.964 41.5575 348.282 41.4578 348.538 41.2585C348.798 41.0548 348.993 40.771 349.123 40.407C349.253 40.0387 349.318 39.614 349.318 39.133C349.318 38.6867 349.26 38.2815 349.143 37.9175C349.03 37.5492 348.846 37.2567 348.59 37.04C348.334 36.8233 347.999 36.715 347.583 36.715C347.193 36.715 346.868 36.8147 346.608 37.014C346.348 37.209 346.15 37.4885 346.016 37.8525C345.886 38.2122 345.821 38.639 345.821 39.133C345.821 39.5707 345.88 39.9737 345.997 40.342C346.114 40.7103 346.302 41.005 346.562 41.226C346.822 41.447 347.162 41.5575 347.583 41.5575ZM352.614 42.5V35.779H353.966V36.7475C354.157 36.4528 354.417 36.1972 354.746 35.9805C355.075 35.7595 355.5 35.649 356.02 35.649C356.263 35.649 356.507 35.6902 356.754 35.7725C357.006 35.8548 357.235 35.9783 357.443 36.143C357.656 36.3033 357.823 36.5027 357.944 36.741C358.156 36.4203 358.44 36.1582 358.795 35.9545C359.151 35.7508 359.549 35.649 359.991 35.649C360.23 35.649 360.477 35.688 360.732 35.766C360.988 35.8397 361.224 35.9675 361.441 36.1495C361.662 36.3272 361.84 36.5742 361.974 36.8905C362.113 37.2068 362.182 37.6077 362.182 38.093V42.5H360.784V38.2425C360.784 37.8742 360.722 37.586 360.596 37.378C360.475 37.17 360.314 37.0248 360.115 36.9425C359.92 36.8558 359.712 36.8125 359.491 36.8125C359.292 36.8125 359.084 36.8515 358.867 36.9295C358.65 37.0075 358.466 37.1375 358.314 37.3195C358.163 37.5015 358.087 37.7485 358.087 38.0605V42.5H356.696V37.9435C356.696 37.6965 356.629 37.4885 356.494 37.3195C356.364 37.1505 356.2 37.0248 356 36.9425C355.805 36.8558 355.61 36.8125 355.415 36.8125C355.199 36.8125 354.982 36.8558 354.765 36.9425C354.549 37.0292 354.367 37.1657 354.219 37.352C354.076 37.534 354.005 37.7702 354.005 38.0605V42.5H352.614ZM365.863 35.779V42.5H364.524V35.779H365.863ZM365.889 33.1075V34.479H364.491V33.1075H365.889ZM367.821 42.5V41.668L371.481 36.7865H367.984V35.779H373.151V36.611L369.485 41.4925H373.177V42.5H367.821ZM375.98 39.4645C375.98 39.8675 376.045 40.2293 376.175 40.55C376.31 40.8663 376.511 41.1177 376.78 41.304C377.049 41.486 377.382 41.577 377.781 41.577C378.18 41.577 378.524 41.486 378.814 41.304C379.109 41.122 379.302 40.8512 379.393 40.4915H380.68C380.602 40.9508 380.418 41.3408 380.127 41.6615C379.841 41.9822 379.495 42.2248 379.087 42.3895C378.68 42.5498 378.253 42.63 377.807 42.63C377.17 42.63 376.609 42.4935 376.123 42.2205C375.638 41.9432 375.259 41.5488 374.986 41.0375C374.717 40.5262 374.583 39.9173 374.583 39.211C374.583 38.5133 374.706 37.898 374.953 37.365C375.2 36.8277 375.558 36.4073 376.026 36.104C376.494 35.8007 377.057 35.649 377.716 35.649C378.366 35.649 378.912 35.7877 379.354 36.065C379.8 36.3423 380.138 36.7323 380.368 37.235C380.598 37.7333 380.712 38.3227 380.712 39.003V39.4645H375.98ZM375.98 38.561H379.386C379.386 38.21 379.326 37.8915 379.204 37.6055C379.083 37.3152 378.897 37.0877 378.645 36.923C378.398 36.754 378.086 36.6695 377.709 36.6695C377.324 36.6695 377.003 36.7627 376.747 36.949C376.492 37.1353 376.299 37.3737 376.169 37.664C376.043 37.9543 375.98 38.2533 375.98 38.561Z" fill="white"/>
</g>
<defs>
<filter id="filter0_d_120_71" x="0" y="0.5" width="88" height="84" filterUnits="userSpaceOnUse" color-interpolation-filters="sRGB">
<feFlood flood-opacity="0" result="BackgroundImageFix"/>
<feColorMatrix in="SourceAlpha" type="matrix" values="0 0 0 0 0 0 0 0 0 0 0 0 0 0 0 0 0 0 127 0" result="hardAlpha"/>
<feOffset dy="5"/>
<feGaussianBlur stdDeviation="10"/>
<feComposite in2="hardAlpha" operator="out"/>
<feColorMatrix type="matrix" values="0 0 0 0 0.294118 0 0 0 0 0.27451 0 0 0 0 0.360784 0 0 0 0.4 0"/>
<feBlend mode="normal" in2="BackgroundImageFix" result="effect1_dropShadow_120_71"/>
<feBlend mode="normal" in="SourceGraphic" in2="effect1_dropShadow_120_71" result="shape"/>
</filter>
<filter id="filter1_d_120_71" x="64" y="0.5" width="88" height="84" filterUnits="userSpaceOnUse" color-interpolation-filters="sRGB">
<feFlood flood-opacity="0" result="BackgroundImageFix"/>
<feColorMatrix in="SourceAlpha" type="matrix" values="0 0 0 0 0 0 0 0 0 0 0 0 0 0 0 0 0 0 127 0" result="hardAlpha"/>
<feOffset dy="5"/>
<feGaussianBlur stdDeviation="10"/>
<feComposite in2="hardAlpha" operator="out"/>
<feColorMatrix type="matrix" values="0 0 0 0 0.294118 0 0 0 0 0.27451 0 0 0 0 0.360784 0 0 0 0.4 0"/>
<feBlend mode="normal" in2="BackgroundImageFix" result="effect1_dropShadow_120_71"/>
<feBlend mode="normal" in="SourceGraphic" in2="effect1_dropShadow_120_71" result="shape"/>
</filter>
<filter id="filter2_d_120_71" x="128" y="0.5" width="88" height="84" filterUnits="userSpaceOnUse" color-interpolation-filters="sRGB">
<feFlood flood-opacity="0" result="BackgroundImageFix"/>
<feColorMatrix in="SourceAlpha" type="matrix" values="0 0 0 0 0 0 0 0 0 0 0 0 0 0 0 0 0 0 127 0" result="hardAlpha"/>
<feOffset dy="5"/>
<feGaussianBlur stdDeviation="10"/>
<feComposite in2="hardAlpha" operator="out"/>
<feColorMatrix type="matrix" values="0 0 0 0 0.294118 0 0 0 0 0.27451 0 0 0 0 0.360784 0 0 0 0.4 0"/>
<feBlend mode="normal" in2="BackgroundImageFix" result="effect1_dropShadow_120_71"/>
<feBlend mode="normal" in="SourceGraphic" in2="effect1_dropShadow_120_71" result="shape"/>
</filter>
<filter id="filter3_d_120_71" x="192" y="0.5" width="88" height="84" filterUnits="userSpaceOnUse" color-interpolation-filters="sRGB">
<feFlood flood-opacity="0" result="BackgroundImageFix"/>
<feColorMatrix in="SourceAlpha" type="matrix" values="0 0 0 0 0 0 0 0 0 0 0 0 0 0 0 0 0 0 127 0" result="hardAlpha"/>
<feOffset dy="5"/>
<feGaussianBlur stdDeviation="10"/>
<feComposite in2="hardAlpha" operator="out"/>
<feColorMatrix type="matrix" values="0 0 0 0 0.294118 0 0 0 0 0.27451 0 0 0 0 0.360784 0 0 0 0.4 0"/>
<feBlend mode="normal" in2="BackgroundImageFix" result="effect1_dropShadow_120_71"/>
<feBlend mode="normal" in="SourceGraphic" in2="effect1_dropShadow_120_71" result="shape"/>
</filter>
<filter id="filter4_d_120_71" x="256" y="0.5" width="162" height="84" filterUnits="userSpaceOnUse" color-interpolation-filters="sRGB">
<feFlood flood-opacity="0" result="BackgroundImageFix"/>
<feColorMatrix in="SourceAlpha" type="matrix" values="0 0 0 0 0 0 0 0 0 0 0 0 0 0 0 0 0 0 127 0" result="hardAlpha"/>
<feOffset dy="5"/>
<feGaussianBlur stdDeviation="10"/>
<feComposite in2="hardAlpha" operator="out"/>
<feColorMatrix type="matrix" values="0 0 0 0 0.294118 0 0 0 0 0.27451 0 0 0 0 0.360784 0 0 0 0.4 0"/>
<feBlend mode="normal" in2="BackgroundImageFix" result="effect1_dropShadow_120_71"/>
<feBlend mode="normal" in="SourceGraphic" in2="effect1_dropShadow_120_71" result="shape"/>
</filter>
</defs>
</svg>
