<svg width="43" height="42" viewBox="0 0 43 42" fill="none" xmlns="http://www.w3.org/2000/svg">
<rect x="0.799988" width="42" height="42" rx="6" fill="#4B465C" fill-opacity="0.08"/>
<path d="M21.8 29.6667L18.55 26.4167H16.3833C14.5884 26.4167 13.1333 24.9616 13.1333 23.1667V16.6667C13.1333 14.8717 14.5884 13.4167 16.3833 13.4167H27.2167C29.0116 13.4167 30.4667 14.8717 30.4667 16.6667V23.1667C30.4667 24.9616 29.0116 26.4167 27.2167 26.4167H25.05L21.8 29.6667" stroke="#4B465C" stroke-width="1.75" stroke-linecap="round" stroke-linejoin="round"/>
<path d="M21.8 29.6667L18.55 26.4167H16.3833C14.5884 26.4167 13.1333 24.9616 13.1333 23.1667V16.6667C13.1333 14.8717 14.5884 13.4167 16.3833 13.4167H27.2167C29.0116 13.4167 30.4667 14.8717 30.4667 16.6667V23.1667C30.4667 24.9616 29.0116 26.4167 27.2167 26.4167H25.05L21.8 29.6667" stroke="white" stroke-opacity="0.5" stroke-width="1.75" stroke-linecap="round" stroke-linejoin="round"/>
<path d="M17.4666 17.75H26.1333" stroke="#4B465C" stroke-width="1.75" stroke-linecap="round" stroke-linejoin="round"/>
<path d="M17.4666 17.75H26.1333" stroke="white" stroke-opacity="0.5" stroke-width="1.75" stroke-linecap="round" stroke-linejoin="round"/>
<path d="M17.4666 22.0833H23.9666" stroke="#4B465C" stroke-width="1.75" stroke-linecap="round" stroke-linejoin="round"/>
<path d="M17.4666 22.0833H23.9666" stroke="white" stroke-opacity="0.5" stroke-width="1.75" stroke-linecap="round" stroke-linejoin="round"/>
</svg>
