<svg width="42" height="42" viewBox="0 0 42 42" fill="none" xmlns="http://www.w3.org/2000/svg">
<rect width="42" height="42" rx="21" fill="#634CE3" fill-opacity="0.08"/>
<path d="M11.25 16.6667C11.25 14.8718 12.7051 13.4167 14.5 13.4167H27.5C29.2949 13.4167 30.75 14.8718 30.75 16.6667V25.3334C30.75 27.1283 29.2949 28.5834 27.5 28.5834H14.5C12.7051 28.5834 11.25 27.1283 11.25 25.3334V16.6667Z" stroke="#634CE3" stroke-width="1.75" stroke-linecap="round" stroke-linejoin="round"/>
<path d="M14.5 17.75H17.75" stroke="#634CE3" stroke-width="1.75" stroke-linecap="round" stroke-linejoin="round"/>
<path d="M14.5 21H17.75" stroke="#634CE3" stroke-width="1.75" stroke-linecap="round" stroke-linejoin="round"/>
<path d="M14.5 24.25H17.75" stroke="#634CE3" stroke-width="1.75" stroke-linecap="round" stroke-linejoin="round"/>
<path d="M23.9575 17.8014L21.4297 18.7282C21.1697 18.8235 21 19.0381 21 19.2735V20.6741C21 22.3279 22.3867 23.8745 24.25 24.25C26.1133 23.8745 27.5 22.3279 27.5 20.6741V19.2735C27.5 19.0381 27.3303 18.8235 27.0703 18.7282L24.5425 17.8014C24.3583 17.7329 24.1417 17.7329 23.9575 17.8014Z" stroke="#634CE3" stroke-width="1.75"/>
</svg>
