<svg width="24" height="15" viewBox="0 0 14 15" fill="none" xmlns="http://www.w3.org/2000/svg">
<path d="M6.66663 12.7083C7.14987 12.7083 7.54163 12.3166 7.54163 11.8333C7.54163 11.3501 7.14987 10.9583 6.66663 10.9583V12.7083ZM11.4583 7.5C11.4583 7.98325 11.85 8.375 12.3333 8.375C12.8165 8.375 13.2083 7.98325 13.2083 7.5H11.4583ZM1.66663 4.29166C1.18338 4.29166 0.791626 4.68341 0.791626 5.16666C0.791626 5.64991 1.18338 6.04166 1.66663 6.04166V4.29166ZM12.3333 6.04166C12.8165 6.04166 13.2083 5.64991 13.2083 5.16666C13.2083 4.68341 12.8165 4.29166 12.3333 4.29166V6.04166ZM6.54163 1.16666C6.54163 0.683415 6.14988 0.291664 5.66663 0.291664C5.18338 0.291664 4.79163 0.683415 4.79163 1.16666H6.54163ZM4.79163 11.8333C4.79163 12.3166 5.18338 12.7083 5.66663 12.7083C6.14988 12.7083 6.54163 12.3166 6.54163 11.8333H4.79163ZM8.33329 10.2917C7.85004 10.2917 7.45829 10.6834 7.45829 11.1667C7.45829 11.6499 7.85004 12.0417 8.33329 12.0417V10.2917ZM13 12.0417C13.4832 12.0417 13.875 11.6499 13.875 11.1667C13.875 10.6834 13.4832 10.2917 13 10.2917V12.0417ZM11.6187 8.54795C11.277 8.20624 10.7229 8.20624 10.3812 8.54795C10.0395 8.88965 10.0395 9.44367 10.3812 9.78538L11.6187 8.54795ZM13 11.1667L13.6187 11.7854C13.9604 11.4437 13.9604 10.8897 13.6187 10.5479L13 11.1667ZM10.3812 12.5479C10.0395 12.8897 10.0395 13.4437 10.3812 13.7854C10.7229 14.1271 11.277 14.1271 11.6187 13.7854L10.3812 12.5479ZM6.66663 10.9583H2.99996V12.7083H6.66663V10.9583ZM2.99996 10.9583C2.74683 10.9583 2.54163 10.7531 2.54163 10.5H0.791626C0.791626 11.7196 1.78033 12.7083 2.99996 12.7083V10.9583ZM2.54163 10.5V2.5H0.791626V10.5H2.54163ZM2.54163 2.5C2.54163 2.24687 2.74683 2.04166 2.99996 2.04166V0.291664C1.78033 0.291664 0.791626 1.28037 0.791626 2.5H2.54163ZM2.99996 2.04166H11V0.291664H2.99996V2.04166ZM11 2.04166C11.2531 2.04166 11.4583 2.24687 11.4583 2.5H13.2083C13.2083 1.28037 12.2196 0.291664 11 0.291664V2.04166ZM11.4583 2.5V7.5H13.2083V2.5H11.4583ZM1.66663 6.04166H12.3333V4.29166H1.66663V6.04166ZM4.79163 1.16666V11.8333H6.54163V1.16666H4.79163ZM8.33329 12.0417H13V10.2917H8.33329V12.0417ZM10.3812 9.78538L12.3812 11.7854L13.6187 10.5479L11.6187 8.54795L10.3812 9.78538ZM12.3812 10.5479L10.3812 12.5479L11.6187 13.7854L13.6187 11.7854L12.3812 10.5479Z" fill="white"/>
</svg>
