<svg width="25" height="15" viewBox="0 0 15 15" fill="none" xmlns="http://www.w3.org/2000/svg">
<path d="M1.79171 7.5C1.79171 7.98325 2.18346 8.375 2.66671 8.375C3.14996 8.375 3.54171 7.98325 3.54171 7.5H1.79171ZM8.00004 10.9583C7.51679 10.9583 7.12504 11.3501 7.12504 11.8333C7.12504 12.3166 7.51679 12.7083 8.00004 12.7083V10.9583ZM2.66671 4.29166C2.18346 4.29166 1.79171 4.68341 1.79171 5.16666C1.79171 5.64991 2.18346 6.04166 2.66671 6.04166V4.29166ZM13.3334 6.04166C13.8166 6.04166 14.2084 5.64991 14.2084 5.16666C14.2084 4.68341 13.8166 4.29166 13.3334 4.29166V6.04166ZM7.54171 1.16666C7.54171 0.683415 7.14996 0.291664 6.66671 0.291664C6.18346 0.291664 5.79171 0.683415 5.79171 1.16666H7.54171ZM5.79171 8.83333C5.79171 9.31658 6.18346 9.70833 6.66671 9.70833C7.14996 9.70833 7.54171 9.31658 7.54171 8.83333H5.79171ZM1.33337 10.2917C0.850125 10.2917 0.458374 10.6834 0.458374 11.1667C0.458374 11.6499 0.850125 12.0417 1.33337 12.0417V10.2917ZM6.00004 12.0417C6.48329 12.0417 6.87504 11.6499 6.87504 11.1667C6.87504 10.6834 6.48329 10.2917 6.00004 10.2917V12.0417ZM4.61876 8.54795C4.27705 8.20624 3.72303 8.20624 3.38132 8.54795C3.03961 8.88965 3.03961 9.44367 3.38132 9.78538L4.61876 8.54795ZM6.00004 11.1667L6.61876 11.7854C6.96047 11.4437 6.96047 10.8897 6.61876 10.5479L6.00004 11.1667ZM3.38132 12.5479C3.03961 12.8897 3.03961 13.4437 3.38132 13.7854C3.72303 14.1271 4.27705 14.1271 4.61876 13.7854L3.38132 12.5479ZM3.54171 7.5V2.5H1.79171V7.5H3.54171ZM3.54171 2.5C3.54171 2.24687 3.74691 2.04166 4.00004 2.04166V0.291664C2.78041 0.291664 1.79171 1.28037 1.79171 2.5H3.54171ZM4.00004 2.04166H12V0.291664H4.00004V2.04166ZM12 2.04166C12.2532 2.04166 12.4584 2.24687 12.4584 2.5H14.2084C14.2084 1.28037 13.2197 0.291664 12 0.291664V2.04166ZM12.4584 2.5V10.5H14.2084V2.5H12.4584ZM12.4584 10.5C12.4584 10.7531 12.2532 10.9583 12 10.9583V12.7083C13.2197 12.7083 14.2084 11.7196 14.2084 10.5H12.4584ZM12 10.9583H8.00004V12.7083H12V10.9583ZM2.66671 6.04166H13.3334V4.29166H2.66671V6.04166ZM5.79171 1.16666V8.83333H7.54171V1.16666H5.79171ZM1.33337 12.0417H6.00004V10.2917H1.33337V12.0417ZM3.38132 9.78538L5.38132 11.7854L6.61876 10.5479L4.61876 8.54795L3.38132 9.78538ZM5.38132 10.5479L3.38132 12.5479L4.61876 13.7854L6.61876 11.7854L5.38132 10.5479Z" fill="white"/>
</svg>
