<svg width="18" height="18" viewBox="0 0 18 18" fill="none" xmlns="http://www.w3.org/2000/svg">
<path fill-rule="evenodd" clip-rule="evenodd" d="M9.35528 14.615C9.13667 14.4998 8.87534 14.4997 8.65662 14.6146L4.98934 16.5428C4.43911 16.832 3.79601 16.3648 3.90112 15.7521L4.60169 11.6681C4.64346 11.4246 4.56264 11.1762 4.38562 11.0039L1.41513 8.1124C0.969422 7.67854 1.21513 6.92193 1.83069 6.83272L5.92862 6.23882C6.17302 6.2034 6.38431 6.04994 6.4936 5.82849L8.3274 2.11276C8.60251 1.55532 9.3974 1.55532 9.67251 2.11276L11.5063 5.82849C11.6156 6.04994 11.8269 6.2034 12.0713 6.23882L16.1692 6.83272C16.7848 6.92193 17.0305 7.67855 16.5848 8.1124L13.6143 11.0039C13.4373 11.1762 13.3565 11.4246 13.3982 11.6681L14.0985 15.7503C14.2037 16.3634 13.5599 16.8306 13.0097 16.5407L9.35528 14.615Z" fill="#F3C72A"/>
</svg>
